<mxfile host="Electron" modified="2024-09-10T07:52:44.259Z" agent="Mozilla/5.0 (Windows NT 10.0; Win64; x64) AppleWebKit/537.36 (KHTML, like Gecko) draw.io/24.4.0 Chrome/120.0.6099.109 Electron/28.1.0 Safari/537.36" etag="i9fhROp_rIP5TVxFhAWz" version="24.4.0" type="device">
  <diagram name="Page-1" id="dAMwT8O9O6BOrZBldRT3">
    <mxGraphModel dx="2718" dy="1859" grid="1" gridSize="10" guides="1" tooltips="1" connect="1" arrows="1" fold="1" page="1" pageScale="1" pageWidth="850" pageHeight="1100" math="0" shadow="0">
      <root>
        <mxCell id="0" />
        <mxCell id="1" parent="0" />
        <mxCell id="c4vUSv1LwgdyN18xG0b7-2" value="" style="rounded=1;whiteSpace=wrap;html=1;dashed=1;fillColor=none;" parent="1" vertex="1">
          <mxGeometry x="-1160" y="-200" width="2200" height="680" as="geometry" />
        </mxCell>
        <mxCell id="c4vUSv1LwgdyN18xG0b7-1" value="" style="rounded=1;whiteSpace=wrap;html=1;dashed=1;fillColor=none;" parent="1" vertex="1">
          <mxGeometry x="-1080" y="-120" width="1200" height="520" as="geometry" />
        </mxCell>
        <mxCell id="c4vUSv1LwgdyN18xG0b7-3" value="" style="image;sketch=0;aspect=fixed;html=1;points=[];align=center;fontSize=12;image=img/lib/mscae/Key.svg;" parent="1" vertex="1">
          <mxGeometry x="-1000" y="-250" width="31" height="50" as="geometry" />
        </mxCell>
        <mxCell id="c4vUSv1LwgdyN18xG0b7-4" value="Sandbox Subscription" style="text;html=1;align=center;verticalAlign=middle;resizable=0;points=[];autosize=1;strokeColor=none;fillColor=none;" parent="1" vertex="1">
          <mxGeometry x="-960" y="-230" width="140" height="30" as="geometry" />
        </mxCell>
        <mxCell id="c4vUSv1LwgdyN18xG0b7-5" value="" style="image;aspect=fixed;html=1;points=[];align=center;fontSize=12;image=img/lib/azure2/general/Resource_Groups.svg;" parent="1" vertex="1">
          <mxGeometry x="-920" y="-160" width="40" height="37.64" as="geometry" />
        </mxCell>
        <mxCell id="c4vUSv1LwgdyN18xG0b7-6" value="rg-poab-demo-&lt;i&gt;{loc}&lt;/i&gt;-&lt;i&gt;{env}&lt;/i&gt;" style="text;html=1;align=center;verticalAlign=middle;resizable=0;points=[];autosize=1;strokeColor=none;fillColor=none;" parent="1" vertex="1">
          <mxGeometry x="-880" y="-150" width="160" height="30" as="geometry" />
        </mxCell>
        <mxCell id="c4vUSv1LwgdyN18xG0b7-33" value="" style="image;aspect=fixed;html=1;points=[];align=center;fontSize=12;image=img/lib/azure2/security/Key_Vaults.svg;" parent="1" vertex="1">
          <mxGeometry x="-640" y="322" width="38" height="38" as="geometry" />
        </mxCell>
        <mxCell id="c4vUSv1LwgdyN18xG0b7-34" value="" style="image;aspect=fixed;html=1;points=[];align=center;fontSize=12;image=img/lib/azure2/integration/App_Configuration.svg;" parent="1" vertex="1">
          <mxGeometry x="-440" y="319.75" width="40" height="42.5" as="geometry" />
        </mxCell>
        <mxCell id="c4vUSv1LwgdyN18xG0b7-8" value="" style="rounded=1;whiteSpace=wrap;html=1;dashed=1;fillColor=none;" parent="1" vertex="1">
          <mxGeometry x="-720" y="-80" width="760" height="360" as="geometry" />
        </mxCell>
        <mxCell id="c4vUSv1LwgdyN18xG0b7-10" value="" style="image;aspect=fixed;html=1;points=[];align=center;fontSize=12;image=img/lib/azure2/networking/Virtual_Networks.svg;" parent="1" vertex="1">
          <mxGeometry x="-683.25" y="-105.82" width="43.25" height="25.82" as="geometry" />
        </mxCell>
        <mxCell id="c4vUSv1LwgdyN18xG0b7-11" value="vnet-poab-demo-&lt;i&gt;{loc}&lt;/i&gt;-&lt;i&gt;{env}&lt;/i&gt;" style="text;html=1;align=center;verticalAlign=middle;resizable=0;points=[];autosize=1;strokeColor=none;fillColor=none;" parent="1" vertex="1">
          <mxGeometry x="-640" y="-110" width="170" height="30" as="geometry" />
        </mxCell>
        <mxCell id="c4vUSv1LwgdyN18xG0b7-15" value="" style="rounded=1;whiteSpace=wrap;html=1;dashed=1;fillColor=none;" parent="1" vertex="1">
          <mxGeometry x="-320" y="-40" width="320" height="280" as="geometry" />
        </mxCell>
        <mxCell id="c4vUSv1LwgdyN18xG0b7-26" value="" style="image;aspect=fixed;html=1;points=[];align=center;fontSize=12;image=img/lib/azure2/networking/Subnet.svg;" parent="1" vertex="1">
          <mxGeometry x="-640" y="-63.94999999999999" width="40" height="23.95" as="geometry" />
        </mxCell>
        <mxCell id="c4vUSv1LwgdyN18xG0b7-27" value="snet-vms-poab-demo-&lt;i&gt;{loc}&lt;/i&gt;-&lt;i&gt;{env}&lt;/i&gt;" style="text;html=1;align=center;verticalAlign=middle;resizable=0;points=[];autosize=1;strokeColor=none;fillColor=none;" parent="1" vertex="1">
          <mxGeometry x="-600" y="-70" width="200" height="30" as="geometry" />
        </mxCell>
        <mxCell id="c4vUSv1LwgdyN18xG0b7-29" value="" style="image;aspect=fixed;html=1;points=[];align=center;fontSize=12;image=img/lib/azure2/networking/Subnet.svg;" parent="1" vertex="1">
          <mxGeometry x="-275" y="-63.94999999999999" width="40" height="23.95" as="geometry" />
        </mxCell>
        <mxCell id="c4vUSv1LwgdyN18xG0b7-30" value="snet-db-poab-demo-&lt;i&gt;{loc}&lt;/i&gt;-&lt;i&gt;{env}&lt;/i&gt;" style="text;html=1;align=center;verticalAlign=middle;resizable=0;points=[];autosize=1;strokeColor=none;fillColor=none;" parent="1" vertex="1">
          <mxGeometry x="-240" y="-70" width="190" height="30" as="geometry" />
        </mxCell>
        <mxCell id="c4vUSv1LwgdyN18xG0b7-31" value="" style="image;aspect=fixed;html=1;points=[];align=center;fontSize=12;image=img/lib/azure2/databases/Azure_Database_PostgreSQL_Server.svg;" parent="1" vertex="1">
          <mxGeometry x="-178.75" y="75" width="37.5" height="50" as="geometry" />
        </mxCell>
        <mxCell id="c4vUSv1LwgdyN18xG0b7-32" value="psql-poab-demo-&lt;i&gt;{loc}&lt;/i&gt;-&lt;i&gt;{env}&lt;/i&gt;" style="text;html=1;align=center;verticalAlign=middle;resizable=0;points=[];autosize=1;strokeColor=none;fillColor=none;" parent="1" vertex="1">
          <mxGeometry x="-245" y="125" width="170" height="30" as="geometry" />
        </mxCell>
        <mxCell id="c4vUSv1LwgdyN18xG0b7-39" value="kv-poab-demo-&lt;i&gt;{loc}&lt;/i&gt;-&lt;i&gt;{env}&lt;/i&gt;" style="text;html=1;align=center;verticalAlign=middle;resizable=0;points=[];autosize=1;strokeColor=none;fillColor=none;" parent="1" vertex="1">
          <mxGeometry x="-701" y="360" width="160" height="30" as="geometry" />
        </mxCell>
        <mxCell id="c4vUSv1LwgdyN18xG0b7-40" value="appcs-poab-demo-&lt;i&gt;{loc}&lt;/i&gt;-&lt;i&gt;{env}&lt;/i&gt;" style="text;html=1;align=center;verticalAlign=middle;resizable=0;points=[];autosize=1;strokeColor=none;fillColor=none;" parent="1" vertex="1">
          <mxGeometry x="-510" y="360" width="180" height="30" as="geometry" />
        </mxCell>
        <mxCell id="c4vUSv1LwgdyN18xG0b7-42" value="" style="rounded=1;whiteSpace=wrap;html=1;dashed=1;fillColor=none;" parent="1" vertex="1">
          <mxGeometry x="200" y="-120" width="760" height="440" as="geometry" />
        </mxCell>
        <mxCell id="c4vUSv1LwgdyN18xG0b7-43" value="" style="image;aspect=fixed;html=1;points=[];align=center;fontSize=12;image=img/lib/azure2/general/Resource_Groups.svg;" parent="1" vertex="1">
          <mxGeometry x="280" y="-160" width="40" height="37.64" as="geometry" />
        </mxCell>
        <mxCell id="c4vUSv1LwgdyN18xG0b7-44" value="rg-poab-demo-&lt;i&gt;{loc}&lt;/i&gt;-shared" style="text;html=1;align=center;verticalAlign=middle;resizable=0;points=[];autosize=1;strokeColor=none;fillColor=none;" parent="1" vertex="1">
          <mxGeometry x="320" y="-150" width="170" height="30" as="geometry" />
        </mxCell>
        <mxCell id="c4vUSv1LwgdyN18xG0b7-45" value="" style="image;aspect=fixed;html=1;points=[];align=center;fontSize=12;image=img/lib/azure2/networking/Public_IP_Addresses.svg;" parent="1" vertex="1">
          <mxGeometry x="325" y="80" width="50" height="40" as="geometry" />
        </mxCell>
        <mxCell id="c4vUSv1LwgdyN18xG0b7-66" style="edgeStyle=orthogonalEdgeStyle;rounded=0;orthogonalLoop=1;jettySize=auto;html=1;exitX=0;exitY=0.25;exitDx=0;exitDy=0;entryX=1;entryY=0.25;entryDx=0;entryDy=0;fillColor=#d5e8d4;strokeColor=#82b366;startArrow=classic;startFill=1;" parent="1" source="c4vUSv1LwgdyN18xG0b7-46" target="c4vUSv1LwgdyN18xG0b7-8" edge="1">
          <mxGeometry relative="1" as="geometry" />
        </mxCell>
        <mxCell id="c4vUSv1LwgdyN18xG0b7-46" value="" style="rounded=1;whiteSpace=wrap;html=1;dashed=1;fillColor=none;" parent="1" vertex="1">
          <mxGeometry x="495" y="-80" width="385" height="360" as="geometry" />
        </mxCell>
        <mxCell id="c4vUSv1LwgdyN18xG0b7-47" value="" style="image;aspect=fixed;html=1;points=[];align=center;fontSize=12;image=img/lib/azure2/networking/Virtual_Networks.svg;" parent="1" vertex="1">
          <mxGeometry x="560" y="-105.81999999999998" width="43.25" height="25.82" as="geometry" />
        </mxCell>
        <mxCell id="c4vUSv1LwgdyN18xG0b7-48" value="vnet-poab-demo-&lt;i&gt;{loc}&lt;/i&gt;-shared" style="text;html=1;align=center;verticalAlign=middle;resizable=0;points=[];autosize=1;strokeColor=none;fillColor=none;" parent="1" vertex="1">
          <mxGeometry x="600" y="-110" width="180" height="30" as="geometry" />
        </mxCell>
        <mxCell id="c4vUSv1LwgdyN18xG0b7-52" style="edgeStyle=orthogonalEdgeStyle;rounded=0;orthogonalLoop=1;jettySize=auto;html=1;" parent="1" source="c4vUSv1LwgdyN18xG0b7-53" target="c4vUSv1LwgdyN18xG0b7-45" edge="1">
          <mxGeometry relative="1" as="geometry" />
        </mxCell>
        <mxCell id="c4vUSv1LwgdyN18xG0b7-53" value="" style="image;sketch=0;aspect=fixed;html=1;points=[];align=center;fontSize=12;image=img/lib/mscae/Virtual_Machine.svg;" parent="1" vertex="1">
          <mxGeometry x="665.76" y="80" width="43.48" height="40" as="geometry" />
        </mxCell>
        <mxCell id="c4vUSv1LwgdyN18xG0b7-54" value="vm-jump-poab-demo-&lt;i&gt;{loc}&lt;/i&gt;-shared" style="text;html=1;align=center;verticalAlign=middle;resizable=0;points=[];autosize=1;strokeColor=none;fillColor=none;" parent="1" vertex="1">
          <mxGeometry x="587.5" y="120" width="200" height="30" as="geometry" />
        </mxCell>
        <mxCell id="c4vUSv1LwgdyN18xG0b7-56" value="" style="image;aspect=fixed;html=1;points=[];align=center;fontSize=12;image=img/lib/azure2/networking/Subnet.svg;" parent="1" vertex="1">
          <mxGeometry x="560" y="-63.94999999999998" width="40" height="23.95" as="geometry" />
        </mxCell>
        <mxCell id="c4vUSv1LwgdyN18xG0b7-57" value="snet-vms-poab-demo-&lt;i&gt;{loc}&lt;/i&gt;-shared" style="text;html=1;align=center;verticalAlign=middle;resizable=0;points=[];autosize=1;strokeColor=none;fillColor=none;" parent="1" vertex="1">
          <mxGeometry x="600" y="-70" width="200" height="30" as="geometry" />
        </mxCell>
        <mxCell id="c4vUSv1LwgdyN18xG0b7-62" value="pip-vm-jump-poab-demo-&lt;i&gt;{loc}&lt;/i&gt;-shared" style="text;html=1;align=center;verticalAlign=middle;resizable=0;points=[];autosize=1;strokeColor=none;fillColor=none;" parent="1" vertex="1">
          <mxGeometry x="240" y="120" width="220" height="30" as="geometry" />
        </mxCell>
        <mxCell id="c4vUSv1LwgdyN18xG0b7-67" value="&lt;b&gt;10.0.0.0/24&lt;/b&gt;" style="text;html=1;align=center;verticalAlign=middle;resizable=0;points=[];autosize=1;strokeColor=none;fillColor=none;rotation=90;" parent="1" vertex="1">
          <mxGeometry x="820" y="80" width="80" height="30" as="geometry" />
        </mxCell>
        <mxCell id="c4vUSv1LwgdyN18xG0b7-68" value="&lt;b&gt;10.1.0.0/24&lt;/b&gt;" style="text;html=1;align=center;verticalAlign=middle;resizable=0;points=[];autosize=1;strokeColor=none;fillColor=none;rotation=90;" parent="1" vertex="1">
          <mxGeometry x="-10" y="85" width="80" height="30" as="geometry" />
        </mxCell>
        <mxCell id="c4vUSv1LwgdyN18xG0b7-69" value="10.1.0.0/27" style="text;html=1;align=center;verticalAlign=middle;resizable=0;points=[];autosize=1;strokeColor=none;fillColor=none;rotation=90;fontStyle=1" parent="1" vertex="1">
          <mxGeometry x="-420" y="85" width="80" height="30" as="geometry" />
        </mxCell>
        <mxCell id="c4vUSv1LwgdyN18xG0b7-70" value="10.1.0.32/27" style="text;html=1;align=center;verticalAlign=middle;resizable=0;points=[];autosize=1;strokeColor=none;fillColor=none;rotation=90;fontStyle=1" parent="1" vertex="1">
          <mxGeometry x="-65" y="85" width="90" height="30" as="geometry" />
        </mxCell>
        <mxCell id="c4vUSv1LwgdyN18xG0b7-71" value="10.0.0.0/27" style="text;html=1;align=center;verticalAlign=middle;resizable=0;points=[];autosize=1;strokeColor=none;fillColor=none;fontStyle=1;rotation=90;" parent="1" vertex="1">
          <mxGeometry x="780" y="80" width="80" height="30" as="geometry" />
        </mxCell>
        <mxCell id="c4vUSv1LwgdyN18xG0b7-74" value="" style="rounded=1;whiteSpace=wrap;html=1;dashed=1;fillColor=none;" parent="1" vertex="1">
          <mxGeometry x="-683.25" y="-40" width="320" height="280" as="geometry" />
        </mxCell>
        <mxCell id="c4vUSv1LwgdyN18xG0b7-75" value="" style="rounded=1;whiteSpace=wrap;html=1;dashed=1;fillColor=none;" parent="1" vertex="1">
          <mxGeometry x="535" y="-40" width="305" height="280" as="geometry" />
        </mxCell>
        <mxCell id="TvS26-ucuxof78eBTWrl-13" style="edgeStyle=orthogonalEdgeStyle;rounded=0;orthogonalLoop=1;jettySize=auto;html=1;" edge="1" parent="1" source="TvS26-ucuxof78eBTWrl-1" target="TvS26-ucuxof78eBTWrl-8">
          <mxGeometry relative="1" as="geometry" />
        </mxCell>
        <mxCell id="TvS26-ucuxof78eBTWrl-17" style="edgeStyle=orthogonalEdgeStyle;rounded=0;orthogonalLoop=1;jettySize=auto;html=1;" edge="1" parent="1" source="TvS26-ucuxof78eBTWrl-1" target="TvS26-ucuxof78eBTWrl-11">
          <mxGeometry relative="1" as="geometry" />
        </mxCell>
        <mxCell id="TvS26-ucuxof78eBTWrl-1" value="" style="image;aspect=fixed;html=1;points=[];align=center;fontSize=12;image=img/lib/azure2/other/Container_App_Environments.svg;" vertex="1" parent="1">
          <mxGeometry x="-598.79" y="-30" width="40" height="40" as="geometry" />
        </mxCell>
        <mxCell id="TvS26-ucuxof78eBTWrl-2" value="" style="image;aspect=fixed;html=1;points=[];align=center;fontSize=12;image=img/lib/azure2/other/Worker_Container_App.svg;" vertex="1" parent="1">
          <mxGeometry x="-600" y="40" width="41.21" height="40" as="geometry" />
        </mxCell>
        <mxCell id="TvS26-ucuxof78eBTWrl-3" value="" style="rounded=1;whiteSpace=wrap;html=1;dashed=1;fillColor=none;" vertex="1" parent="1">
          <mxGeometry x="-640" y="10" width="240" height="190" as="geometry" />
        </mxCell>
        <mxCell id="TvS26-ucuxof78eBTWrl-4" value="cae-poab-demo-&lt;i&gt;{loc}&lt;/i&gt;-&lt;i&gt;{env}&lt;/i&gt;" style="text;html=1;align=center;verticalAlign=middle;resizable=0;points=[];autosize=1;strokeColor=none;fillColor=none;" vertex="1" parent="1">
          <mxGeometry x="-558.79" y="-20" width="170" height="30" as="geometry" />
        </mxCell>
        <mxCell id="TvS26-ucuxof78eBTWrl-5" value="ca-frontend" style="text;html=1;align=center;verticalAlign=middle;resizable=0;points=[];autosize=1;strokeColor=none;fillColor=none;" vertex="1" parent="1">
          <mxGeometry x="-618.79" y="80" width="80" height="30" as="geometry" />
        </mxCell>
        <mxCell id="TvS26-ucuxof78eBTWrl-6" value="" style="image;aspect=fixed;html=1;points=[];align=center;fontSize=12;image=img/lib/azure2/other/Worker_Container_App.svg;" vertex="1" parent="1">
          <mxGeometry x="-481.21" y="35" width="41.21" height="40" as="geometry" />
        </mxCell>
        <mxCell id="TvS26-ucuxof78eBTWrl-7" value="ca-backend" style="text;html=1;align=center;verticalAlign=middle;resizable=0;points=[];autosize=1;strokeColor=none;fillColor=none;" vertex="1" parent="1">
          <mxGeometry x="-505.61" y="80" width="90" height="30" as="geometry" />
        </mxCell>
        <mxCell id="TvS26-ucuxof78eBTWrl-8" value="" style="image;aspect=fixed;html=1;points=[];align=center;fontSize=12;image=img/lib/azure2/management_governance/Log_Analytics_Workspaces.svg;" vertex="1" parent="1">
          <mxGeometry x="-820" y="40" width="40" height="40" as="geometry" />
        </mxCell>
        <mxCell id="TvS26-ucuxof78eBTWrl-14" value="" style="edgeStyle=orthogonalEdgeStyle;rounded=0;orthogonalLoop=1;jettySize=auto;html=1;" edge="1" parent="1" source="TvS26-ucuxof78eBTWrl-9" target="TvS26-ucuxof78eBTWrl-12">
          <mxGeometry relative="1" as="geometry" />
        </mxCell>
        <mxCell id="TvS26-ucuxof78eBTWrl-9" value="" style="image;aspect=fixed;html=1;points=[];align=center;fontSize=12;image=img/lib/azure2/devops/Application_Insights.svg;" vertex="1" parent="1">
          <mxGeometry x="-825.02" y="157" width="30.04" height="43" as="geometry" />
        </mxCell>
        <mxCell id="TvS26-ucuxof78eBTWrl-19" style="edgeStyle=orthogonalEdgeStyle;rounded=0;orthogonalLoop=1;jettySize=auto;html=1;" edge="1" parent="1" source="TvS26-ucuxof78eBTWrl-10" target="c4vUSv1LwgdyN18xG0b7-32">
          <mxGeometry relative="1" as="geometry">
            <Array as="points">
              <mxPoint x="-200" y="260" />
              <mxPoint x="-160" y="260" />
            </Array>
          </mxGeometry>
        </mxCell>
        <mxCell id="TvS26-ucuxof78eBTWrl-10" value="" style="image;sketch=0;aspect=fixed;html=1;points=[];align=center;fontSize=12;image=img/lib/mscae/DNS_Private_Zones.svg;" vertex="1" parent="1">
          <mxGeometry x="-220" y="319.75" width="40" height="40" as="geometry" />
        </mxCell>
        <mxCell id="TvS26-ucuxof78eBTWrl-11" value="" style="image;sketch=0;aspect=fixed;html=1;points=[];align=center;fontSize=12;image=img/lib/mscae/Managed_Identities.svg;" vertex="1" parent="1">
          <mxGeometry x="-1003.5" y="40" width="38" height="50" as="geometry" />
        </mxCell>
        <mxCell id="TvS26-ucuxof78eBTWrl-12" value="log-poab-demo-&lt;i&gt;{loc}-{env}&lt;/i&gt;" style="text;html=1;align=center;verticalAlign=middle;resizable=0;points=[];autosize=1;strokeColor=none;fillColor=none;" vertex="1" parent="1">
          <mxGeometry x="-890" y="80" width="160" height="30" as="geometry" />
        </mxCell>
        <mxCell id="TvS26-ucuxof78eBTWrl-15" value="appi-poab-demo-&lt;i&gt;{loc}&lt;/i&gt;-&lt;i&gt;{loc}&lt;/i&gt;" style="text;html=1;align=center;verticalAlign=middle;resizable=0;points=[];autosize=1;strokeColor=none;fillColor=none;" vertex="1" parent="1">
          <mxGeometry x="-900" y="200" width="170" height="30" as="geometry" />
        </mxCell>
        <mxCell id="TvS26-ucuxof78eBTWrl-16" value="id-cae-poab-demo-&lt;i&gt;{loc}&lt;/i&gt;-&lt;i&gt;{env}&lt;/i&gt;" style="text;html=1;align=center;verticalAlign=middle;resizable=0;points=[];autosize=1;strokeColor=none;fillColor=none;" vertex="1" parent="1">
          <mxGeometry x="-1074.5" y="90" width="180" height="30" as="geometry" />
        </mxCell>
        <mxCell id="TvS26-ucuxof78eBTWrl-18" value="&lt;i&gt;{env}&lt;/i&gt;.poab-demo.postgres.azure.com" style="text;html=1;align=center;verticalAlign=middle;resizable=0;points=[];autosize=1;strokeColor=none;fillColor=none;" vertex="1" parent="1">
          <mxGeometry x="-310" y="360" width="220" height="30" as="geometry" />
        </mxCell>
      </root>
    </mxGraphModel>
  </diagram>
</mxfile>
